#!OML:ASF H:\ManfredETheater\Project 1\Capture day 1\Session 1\subject.ASF
:FULLY-SPECIFIED
:DEGREES
125
root -1.33738 22.2792 8.61998 10.9161 -0.475422 9.03564
lowerback 9.70885 -3.10999 -8.9258
upperback -2.12199 -5.36186 -1.26902
thorax -7.0305 -2.27044 4.45799
lowerneck -20.9178 0.960044 -1.42823
upperneck 15.6836 1.99725 -1.26523
head 8.30802 0.716399 0.0645715
rclavicle 6.4605e-016 -2.13445e-014
rhumerus -81.9009 2.10605 -89.5422
rradius 102.906
rwrist -8.93636
rhand -22.3277 11.6251
rfingers 7.12502
rthumb 4.09235 -18.3153
lclavicle 6.4605e-016 -2.13445e-014
lhumerus -44.1222 -25.8773 103.298
lradius 124.03
lwrist 6.43241
lhand -19.1133 -18.4208
lfingers 7.12502
lthumb 7.19583 11.4369
rfemur -44.418 -9.6752 16.6485
rtibia 36.3419
rfoot -2.32721 -6.43998
rtoes -32.5987
lfemur -3.25681 -2.93874 -32.5077
ltibia 43.5172
lfoot 10.9097 -10.3394
ltoes 1.00087
126
root -1.36649 22.2605 9.07968 10.7827 -0.569026 8.91685
lowerback 9.72227 -2.99302 -8.79105
upperback -2.0377 -5.1785 -1.18482
thorax -6.97443 -2.19001 4.44661
lowerneck -20.8994 0.891178 -1.53209
upperneck 15.7419 1.95437 -1.35753
head 8.32518 0.67898 0.0447816
rclavicle -2.41275e-014 3.08116e-015
rhumerus -81.2298 1.64768 -89.3819
rradius 103.107
rwrist -8.66135
rhand -22.2239 11.3175
rfingers 7.12502
rthumb 4.19258 -18.621
lclavicle -2.41275e-014 3.08116e-015
lhumerus -45.2016 -25.734 103.549
lradius 122.285
lwrist 5.99935
lhand -19.2772 -18.2801
lfingers 7.12502
lthumb 7.03759 11.5829
rfemur -43.4167 -9.80134 17.1422
rtibia 37.2778
rfoot -1.93046 -6.06877
rtoes -28.9036
lfemur -3.76203 -3.41614 -32.2787
ltibia 45.958
lfoot 11.3019 -10.1543
ltoes 3.07958
127
root -1.39531 22.2307 9.53633 10.5714 -0.694435 8.64406
lowerback 9.8226 -2.84772 -8.54105
upperback -1.92837 -4.94759 -1.05513
thorax -6.95188 -2.0888 4.4186
lowerneck -20.8763 0.819666 -1.63386
upperneck 15.7803 1.90781 -1.45523
head 8.33488 0.639639 0.0222505
rclavicle -9.57521e-014 -4.22417e-014
rhumerus -80.4321 1.26045 -89.255
rradius 103.246
rwrist -8.41499
rhand -22.1053 11.01
rfingers 7.12502
rthumb 4.30707 -18.9261
lclavicle -9.57521e-014 -4.22417e-014
lhumerus -46.2363 -25.4729 103.795
lradius 120.47
lwrist 5.98548
lhand -19.3789 -18.0861
lfingers 7.12502
lthumb 6.93938 11.7802
rfemur -42.2236 -9.85008 17.7501
rtibia 38.2856
rfoot -1.94987 -5.51533
rtoes -24.3622
lfemur -4.37947 -3.73421 -31.8785
ltibia 48.7023
lfoot 11.1616 -9.66426
ltoes 4.22194
128
root -1.42514 22.1907 9.99008 10.3165 -0.854713 8.22251
lowerback 9.98239 -2.67985 -8.19441
upperback -1.80458 -4.67594 -0.877016
thorax -6.95516 -1.96945 4.38542
lowerneck -20.8547 0.751164 -1.72255
upperneck 15.8055 1.86431 -1.56838
head 8.34073 0.601035 -0.00725528
rclavicle 6.72141e-014 2.54444e-014
rhumerus -79.5079 0.951394 -89.1695
rradius 103.314
rwrist -8.19413
rhand -22.0008 10.7377
rfingers 7.12502
rthumb 4.40799 -19.1964
lclavicle 6.72141e-014 2.54444e-014
lhumerus -47.2146 -25.0897 104.018
lradius 118.592
lwrist 6.31731
lhand -19.4304 -17.8995
lfingers 7.12502
lthumb 6.88964 11.9683
rfemur -40.8582 -9.75719 18.4361
rtibia 39.2747
rfoot -2.49465 -5.00824
rtoes -19.6967
lfemur -5.1282 -3.88017 -31.2906
ltibia 51.6822
lfoot 10.6462 -8.92668
ltoes 4.46153
129
root -1.45702 22.1422 10.4414 10.0552 -1.03093 7.67844
lowerback 10.1821 -2.5034 -7.7763
upperback -1.68624 -4.38409 -0.655928
thorax -6.98991 -1.84035 4.35634
lowerneck -20.8185 0.690363 -1.79471
upperneck 15.8214 1.82831 -1.69432
head 8.34121 0.565839 -0.0428599
rclavicle -1.19519e-014 1.94809e-014
rhumerus -78.4753 0.729192 -89.133
rradius 103.311
rwrist -8.00224
rhand -21.928 10.4649
rfingers 7.12502
rthumb 4.47825 -19.4677
lclavicle -1.19519e-014 1.94809e-014
lhumerus -48.1465 -24.5761 104.21
lradius 116.662
lwrist 6.86289
lhand -19.4491 -17.7146
lfingers 7.12502
lthumb 6.8716 12.1539
rfemur -39.3551 -9.51071 19.1659
rtibia 40.1777
rfoot -3.54935 -4.71742
rtoes -15.3595
lfemur -6.02484 -3.87088 -30.518
ltibia 54.825
lfoot 9.83361 -8.03847
ltoes 3.97263
130
root -1.49155 22.0865 10.8907 9.81811 -1.22206 7.03143
lowerback 10.3844 -2.32208 -7.30836
upperback -1.57583 -4.07585 -0.397625
thorax -7.0356 -1.70371 4.33471
lowerneck -20.7761 0.637962 -1.84257
upperneck 15.8306 1.79938 -1.83649
head 8.33875 0.533895 -0.0869779
rclavicle 3.5334e-014 3.37934e-015
rhumerus -77.3274 0.591844 -89.1481
rradius 103.235
rwrist -7.84123
rhand -21.9052 10.1882
rfingers 7.12502
rthumb 4.50034 -19.744
lclavicle 3.5334e-014 3.37934e-015
lhumerus -49.0123 -23.9427 104.352
lradius 114.678
lwrist 7.52383
lhand -19.4786 -17.5455
lfingers 7.12502
lthumb 6.84321 12.3239
rfemur -37.7584 -9.09588 19.9281
rtibia 40.9622
rfoot -5.0625 -4.77897
rtoes -12.0366
lfemur -7.08407 -3.7211 -29.5686
ltibia 58.0683
lfoot 8.81937 -7.10649
ltoes 3.14316
131
root -1.52857 22.0254 11.339 9.6179 -1.41942 6.30759
lowerback 10.573 -2.14078 -6.80552
upperback -1.47651 -3.75881 -0.112259
thorax -7.08501 -1.56319 4.31804
lowerneck -20.7189 0.590921 -1.87155
upperneck 15.8268 1.77264 -1.98552
head 8.32954 0.503768 -0.136219
rclavicle -2.88735e-014 1.8487e-014
rhumerus -76.0677 0.538683 -89.2165
rradius 103.087
rwrist -7.72465
rhand -21.9368 9.87796
rfingers 7.12502
rthumb 4.46977 -20.0549
lclavicle -2.88735e-014 1.8487e-014
lhumerus -49.8092 -23.1932 104.435
lradius 112.633
lwrist 8.21384
lhand -19.5274 -17.3924
lfingers 7.12502
lthumb 6.79603 12.4785
rfemur -36.0361 -8.52859 20.7082
rtibia 41.4715
rfoot -6.80491 -5.22819
rtoes -10.2053
lfemur -8.27189 -3.45922 -28.467
ltibia 61.2662
lfoot 7.76806 -6.2257
ltoes 2.35964
132
root -1.5679 21.9595 11.7855 9.48469 -1.61929 5.53404
lowerback 10.7247 -1.96032 -6.28474
upperback -1.39227 -3.43559 0.18821
thorax -7.12848 -1.42 4.30239
lowerneck -20.6628 0.547247 -1.87757
upperneck 15.8141 1.74407 -2.13833
head 8.31765 0.473998 -0.190653
rclavicle 2.03754e-015 -1.92821e-014
rhumerus -74.6879 0.562906 -89.3381
rradius 102.875
rwrist -7.67962
rhand -22.0086 9.52425
rfingers 7.12502
rthumb 4.40042 -20.41
lclavicle 2.03754e-015 -1.92821e-014
lhumerus -50.5179 -22.3486 104.437
lradius 110.52
lwrist 8.87399
lhand -19.6168 -17.2496
lfingers 7.12502
lthumb 6.70978 12.6241
rfemur -34.3209 -7.83877 21.5013
rtibia 41.8754
rfoot -8.67179 -5.99847
rtoes -9.90764
lfemur -9.65291 -3.1114 -27.2442
ltibia 64.4737
lfoot 6.63292 -5.44494
ltoes 1.86515
133
root -1.61082 21.9303 12.2406 9.42203 -1.81156 4.73414
lowerback 10.8429 -1.78078 -5.74606
upperback -1.32646 -3.10803 0.49196
thorax -7.17202 -1.27498 4.27611
lowerneck -20.612 0.500338 -1.8697
upperneck 15.7969 1.70584 -2.286
head 8.30511 0.441182 -0.2468
rclavicle 3.28492e-014 2.18663e-014
rhumerus -73.1945 0.660249 -89.508
rradius 102.614
rwrist -7.7268
rhand -22.1097 9.09534
rfingers 7.12502
rthumb 4.30285 -20.8409
lclavicle 3.28492e-014 2.18663e-014
lhumerus -51.1394 -21.433 104.35
lradius 108.333
lwrist 9.49141
lhand -19.7512 -17.1083
lfingers 7.12502
lthumb 6.58003 12.7695
rfemur -32.4796 -7.09298 22.2911
rtibia 42.0841
rfoot -10.5679 -6.98431
rtoes -10.7929
lfemur -11.1125 -2.70211 -25.9233
ltibia 67.4787
lfoot 5.51744 -4.82228
ltoes 1.56947
134
root -1.65164 21.8568 12.683 9.43546 -2.00065 3.928
lowerback 10.927 -1.59941 -5.19031
upperback -1.27946 -2.7739 0.785666
thorax -7.21615 -1.12731 4.22541
lowerneck -20.5863 0.447195 -1.84259
upperneck 15.7837 1.65328 -2.4292
head 8.29814 0.40307 -0.306327
rclavicle 1.41137e-014 1.39149e-014
rhumerus -71.5851 0.837169 -89.7272
rradius 102.315
rwrist -7.86112
rhand -22.2456 8.62362
rfingers 7.12502
rthumb 4.17157 -21.3153
lclavicle 1.41137e-014 1.39149e-014
lhumerus -51.6791 -20.4701 104.165
lradius 106.083
lwrist 10.0803
lhand -19.9254 -16.9576
lfingers 7.12502
lthumb 6.41186 12.9253
rfemur -30.8576 -6.34288 23.1085
rtibia 42.3395
rfoot -12.3111 -8.06851
rtoes -12.4466
lfemur -12.8759 -2.24508 -24.5742
ltibia 70.5855
lfoot 4.28392 -4.29841
ltoes 1.35434
135
root -1.69123 21.781 13.1228 9.52921 -2.19183 3.1295
lowerback 10.9661 -1.41282 -4.62058
upperback -1.25122 -2.42935 1.06504
thorax -7.2545 -0.975372 4.14667
lowerneck -20.5818 0.386465 -1.81154
upperneck 15.7726 1.58725 -2.55936
head 8.29523 0.360059 -0.363801
rclavicle -4.70623e-014 -1.15295e-014
rhumerus -69.8663 1.10484 -89.9839
rradius 102.004
rwrist -8.05027
rhand -22.4222 8.12767
rfingers 7.12502
rthumb 4.00108 -21.8145
lclavicle -4.70623e-014 -1.15295e-014
lhumerus -52.1462 -19.491 103.883
lradius 103.786
lwrist 10.6723
lhand -20.153 -16.8035
lfingers 7.12502
lthumb 6.19213 13.086
rfemur -29.3056 -5.6516 23.9337
rtibia 42.5428
rfoot -13.917 -8.97956
rtoes -14.0431
lfemur -14.8451 -1.73909 -23.2202
ltibia 73.5996
lfoot 3.00661 -3.87259
ltoes 1.16304
